<?xml version="1.0" encoding="UTF-8" standalone="no"?>
<svg width="113px" height="40px" viewBox="0 0 113 40" version="1.1" xmlns="http://www.w3.org/2000/svg" xmlns:xlink="http://www.w3.org/1999/xlink" xmlns:sketch="http://www.bohemiancoding.com/sketch/ns">
    <!-- Generator: Sketch 3.2.2 (9983) - http://www.bohemiancoding.com/sketch -->
    <title>Group</title>
    <desc>Created with Sketch.</desc>
    <defs></defs>
    <g id="Page-1" stroke="none" stroke-width="1" fill="none" fill-rule="evenodd" sketch:type="MSPage">
        <g id="Group" sketch:type="MSLayerGroup">
            <path d="M92.861,39.466 L29.437,39.466 L44.106,0.645 L92.861,0.645 C103.581,0.645 112.271,9.336 112.271,20.056 C112.271,30.776 103.581,39.466 92.861,39.466" id="Fill-35" fill="#1A1918" sketch:type="MSShapeGroup"></path>
            <path d="M44.106,39.466 L19.707,39.466 C8.987,39.466 0.296,30.776 0.296,20.056 C0.296,9.336 8.987,0.645 19.707,0.645 L51.441,0.645 L44.106,39.466" id="Fill-36" fill="#D51E13" sketch:type="MSShapeGroup"></path>
            <path d="M70.438,14.565 C72.106,14.565 73.385,14.858 74.279,15.444 C75.171,16.031 75.617,16.991 75.617,18.324 C75.617,19.669 75.166,20.64 74.262,21.237 C73.358,21.834 72.068,22.133 70.39,22.133 L69.599,22.133 L69.599,25.876 L67.082,25.876 L67.082,14.855 C67.63,14.748 68.211,14.672 68.824,14.629 C69.438,14.586 69.975,14.565 70.438,14.565 L70.438,14.565 Z M70.6,16.711 C70.416,16.711 70.236,16.716 70.059,16.727 C69.881,16.738 69.728,16.749 69.599,16.759 L69.599,19.986 L70.39,19.986 C71.261,19.986 71.917,19.868 72.358,19.631 C72.799,19.395 73.02,18.954 73.02,18.308 C73.02,17.996 72.963,17.738 72.85,17.534 C72.737,17.33 72.576,17.165 72.366,17.042 C72.156,16.918 71.901,16.832 71.6,16.783 C71.298,16.735 70.965,16.711 70.6,16.711 L70.6,16.711 Z" id="Fill-37" fill="#FFFFFF" sketch:type="MSShapeGroup"></path>
            <path d="M83.589,17.631 C83.589,18.04 83.508,18.432 83.346,18.808 C83.185,19.185 82.975,19.548 82.717,19.898 C82.459,20.248 82.169,20.583 81.846,20.906 C81.523,21.229 81.206,21.535 80.894,21.826 C80.732,21.977 80.558,22.146 80.369,22.335 C80.181,22.522 80,22.713 79.829,22.907 C79.656,23.101 79.503,23.281 79.369,23.448 C79.234,23.615 79.151,23.751 79.119,23.859 L83.927,23.859 L83.927,25.876 L76.473,25.876 C76.451,25.758 76.441,25.607 76.441,25.424 L76.441,25.037 C76.441,24.52 76.523,24.047 76.691,23.617 C76.857,23.186 77.075,22.786 77.344,22.415 C77.613,22.044 77.917,21.697 78.256,21.374 C78.595,21.051 78.931,20.728 79.264,20.406 C79.522,20.158 79.764,19.924 79.99,19.704 C80.216,19.484 80.415,19.268 80.587,19.059 C80.759,18.849 80.894,18.639 80.991,18.429 C81.087,18.22 81.136,18.007 81.136,17.792 C81.136,17.319 81.001,16.985 80.732,16.792 C80.464,16.598 80.13,16.501 79.732,16.501 C79.442,16.501 79.17,16.547 78.917,16.638 C78.664,16.73 78.433,16.837 78.224,16.961 C78.014,17.085 77.833,17.208 77.683,17.332 C77.532,17.456 77.419,17.555 77.344,17.631 L76.15,15.953 C76.623,15.512 77.175,15.148 77.804,14.863 C78.433,14.578 79.108,14.436 79.829,14.436 C80.485,14.436 81.049,14.511 81.523,14.662 C81.996,14.813 82.386,15.025 82.693,15.299 C83,15.573 83.225,15.907 83.371,16.299 C83.516,16.692 83.589,17.136 83.589,17.631" id="Fill-38" fill="#FFFFFF" sketch:type="MSShapeGroup"></path>
            <path d="M88.8,14.565 C90.468,14.565 91.748,14.858 92.64,15.444 C93.533,16.031 93.98,16.991 93.98,18.324 C93.98,19.669 93.528,20.64 92.625,21.237 C91.721,21.834 90.43,22.133 88.752,22.133 L87.961,22.133 L87.961,25.876 L85.444,25.876 L85.444,14.855 C85.993,14.748 86.574,14.672 87.186,14.629 C87.8,14.586 88.338,14.565 88.8,14.565 L88.8,14.565 Z M88.961,16.711 C88.778,16.711 88.598,16.716 88.421,16.727 C88.243,16.738 88.09,16.749 87.961,16.759 L87.961,19.986 L88.752,19.986 C89.623,19.986 90.279,19.868 90.72,19.631 C91.161,19.395 91.382,18.954 91.382,18.308 C91.382,17.996 91.325,17.738 91.212,17.534 C91.1,17.33 90.938,17.165 90.729,17.042 C90.519,16.918 90.263,16.832 89.962,16.783 C89.661,16.735 89.327,16.711 88.961,16.711 L88.961,16.711 Z" id="Fill-39" fill="#FFFFFF" sketch:type="MSShapeGroup"></path>
            <path d="M42.265,8.24 C39.738,5.597 35.949,4.45 32.377,5.248 C30.515,5.664 28.799,6.584 27.415,7.907 C27.291,8.025 27.171,8.147 27.053,8.271 L24.37,7.432 C24.024,5.374 23.071,3.443 21.614,1.918 C21.154,1.437 20.641,1.024 20.107,0.645 L19.706,0.645 C12.952,0.645 7.009,4.099 3.532,9.333 C3.57,11.993 4.582,14.502 6.43,16.434 C7.897,17.969 9.797,19.01 11.852,19.444 L12.568,22.117 C12.449,22.221 12.332,22.328 12.218,22.436 C10.19,24.375 9.039,26.987 8.976,29.792 C8.912,32.597 9.945,35.259 11.884,37.286 C12.203,37.62 12.544,37.93 12.9,38.215 C15.021,39.01 17.308,39.466 19.706,39.466 L24.041,39.466 C25.022,38.991 25.937,38.381 26.734,37.62 C29.539,34.938 30.588,30.936 29.609,27.29 L31.48,25.502 C33.242,26.066 35.133,26.157 36.977,25.745 C38.836,25.33 40.549,24.412 41.932,23.091 C43.959,21.152 45.111,18.539 45.174,15.735 C45.237,12.93 44.204,10.268 42.265,8.24 L42.265,8.24 Z M23.243,20.222 C22.769,20.041 22.282,19.895 21.786,19.784 L21.038,16.992 C21.12,16.919 21.2,16.845 21.279,16.769 C21.368,16.684 21.455,16.598 21.541,16.509 L24.343,17.385 C24.43,17.873 24.553,18.352 24.708,18.821 L23.243,20.222 L23.243,20.222 Z" id="Fill-40" fill="#FFFFFF" sketch:type="MSShapeGroup"></path>
            <path d="M40.992,9.849 C37.942,6.659 32.884,6.545 29.694,9.595 C29.135,10.129 28.677,10.727 28.307,11.364 L21.306,9.174 C21.44,7.026 20.72,4.83 19.115,3.152 C16.065,-0.038 11.007,-0.152 7.817,2.898 C4.626,5.948 4.513,11.006 7.563,14.197 C9.175,15.883 11.348,16.7 13.509,16.655 L15.396,23.696 C14.754,24.035 14.145,24.46 13.594,24.987 C10.404,28.037 10.29,33.095 13.34,36.286 C16.39,39.476 21.449,39.59 24.639,36.54 C27.829,33.49 27.943,28.431 24.893,25.241 C22.62,22.864 19.233,22.197 16.334,23.273 C17.061,22.585 17.894,22.049 18.796,21.695 L17.182,15.672 C17.779,15.344 18.346,14.943 18.861,14.45 C19.384,13.951 19.816,13.393 20.173,12.803 L27.239,15.013 C27.168,16.604 27.563,18.213 28.442,19.613 L25.654,22.278 C25.786,22.358 25.919,22.432 26.047,22.52 C27.015,23.185 27.762,24.041 28.319,24.989 L31.175,22.26 C34.177,24.023 38.097,23.673 40.738,21.148 C43.929,18.098 44.042,13.039 40.992,9.849 L40.992,9.849 Z M18.171,25.926 C19.056,25.08 20.46,25.111 21.306,25.997 C22.153,26.882 22.121,28.286 21.236,29.132 C20.35,29.978 18.947,29.947 18.1,29.062 C17.254,28.176 17.285,26.772 18.171,25.926 L18.171,25.926 Z M15.458,7.043 C14.573,7.889 13.169,7.858 12.323,6.973 C11.476,6.087 11.508,4.683 12.393,3.837 C13.279,2.991 14.682,3.022 15.529,3.908 C16.375,4.793 16.343,6.197 15.458,7.043 L15.458,7.043 Z M37.335,13.74 C36.45,14.587 35.046,14.555 34.2,13.67 C33.353,12.785 33.385,11.381 34.27,10.535 C35.155,9.688 36.559,9.72 37.406,10.605 C38.252,11.49 38.22,12.894 37.335,13.74 L37.335,13.74 Z" id="Fill-41" fill="#1A1918" sketch:type="MSShapeGroup"></path>
        </g>
    </g>
</svg>