<?xml version="1.0" encoding="UTF-8" standalone="no"?>
<svg width="176px" height="40px" viewBox="0 0 176 40" version="1.1" xmlns="http://www.w3.org/2000/svg" xmlns:xlink="http://www.w3.org/1999/xlink" xmlns:sketch="http://www.bohemiancoding.com/sketch/ns">
    <!-- Generator: Sketch 3.2.2 (9983) - http://www.bohemiancoding.com/sketch -->
    <title>Group</title>
    <desc>Created with Sketch.</desc>
    <defs></defs>
    <g id="Page-1" stroke="none" stroke-width="1" fill="none" fill-rule="evenodd" sketch:type="MSPage">
        <g id="Group" sketch:type="MSLayerGroup">
            <path d="M155.711,39.035 L31.031,39.035 L45.7,0.214 L155.711,0.214 C166.431,0.214 175.121,8.904 175.121,19.624 C175.121,30.344 166.431,39.035 155.711,39.035" id="Fill-118" fill="#1A1918" sketch:type="MSShapeGroup"></path>
            <path d="M45.7,39.035 L21.3,39.035 C10.58,39.035 1.89,30.344 1.89,19.624 C1.89,8.904 10.58,0.214 21.3,0.214 L53.034,0.214 L45.7,39.035" id="Fill-119" fill="#D51E13" sketch:type="MSShapeGroup"></path>
            <path d="M68.028,25.444 L68.028,14.262 L75.579,14.262 L75.579,16.376 L70.545,16.376 L70.545,18.571 L75.014,18.571 L75.014,20.636 L70.545,20.636 L70.545,23.33 L75.95,23.33 L75.95,25.444 L68.028,25.444" id="Fill-120" fill="#FFFFFF" sketch:type="MSShapeGroup"></path>
            <path d="M83.959,25.444 C83.644,24.822 83.3,24.191 82.925,23.553 C82.551,22.913 82.121,22.373 81.636,21.932 C81.485,22.098 81.294,22.33 81.063,22.625 C80.833,22.922 80.602,23.236 80.371,23.568 C80.14,23.901 79.924,24.247 79.723,24.603 C79.521,24.961 79.372,25.242 79.273,25.444 L76.401,25.444 C76.872,24.572 77.427,23.67 78.068,22.74 C78.708,21.81 79.423,20.823 80.211,19.778 L76.563,14.262 L79.612,14.262 L81.743,17.5 L83.92,14.262 L86.793,14.262 L83.164,19.659 C84.115,20.852 84.899,21.945 85.514,22.938 C86.129,23.932 86.615,24.767 86.97,25.444 L83.959,25.444" id="Fill-121" fill="#FFFFFF" sketch:type="MSShapeGroup"></path>
            <path d="M91.181,14.133 C92.849,14.133 94.129,14.427 95.022,15.013 C95.915,15.599 96.361,16.559 96.361,17.893 C96.361,19.238 95.909,20.208 95.006,20.805 C94.102,21.402 92.811,21.701 91.133,21.701 L90.342,21.701 L90.342,25.444 L87.825,25.444 L87.825,14.424 C88.374,14.316 88.955,14.241 89.568,14.198 C90.181,14.155 90.719,14.133 91.181,14.133 L91.181,14.133 Z M91.343,16.279 C91.16,16.279 90.98,16.285 90.803,16.296 C90.625,16.306 90.472,16.317 90.342,16.328 L90.342,19.555 L91.133,19.555 C92.005,19.555 92.661,19.437 93.102,19.2 C93.543,18.964 93.763,18.522 93.763,17.877 C93.763,17.565 93.707,17.307 93.594,17.102 C93.481,16.898 93.32,16.734 93.11,16.61 C92.9,16.487 92.644,16.401 92.343,16.352 C92.042,16.303 91.709,16.279 91.343,16.279 L91.343,16.279 Z" id="Fill-122" fill="#FFFFFF" sketch:type="MSShapeGroup"></path>
            <path d="M105.091,23.282 L105.091,25.444 L97.62,25.444 L97.62,14.262 L100.137,14.262 L100.137,23.282 L105.091,23.282" id="Fill-123" fill="#FFFFFF" sketch:type="MSShapeGroup"></path>
            <path d="M116.434,19.845 C116.434,20.803 116.291,21.645 116.006,22.371 C115.721,23.097 115.331,23.704 114.836,24.194 C114.341,24.684 113.753,25.052 113.07,25.299 C112.386,25.547 111.652,25.67 110.867,25.67 C110.103,25.67 109.382,25.547 108.705,25.299 C108.027,25.052 107.435,24.684 106.93,24.194 C106.424,23.704 106.026,23.097 105.736,22.371 C105.445,21.645 105.3,20.803 105.3,19.845 C105.3,18.888 105.45,18.046 105.752,17.32 C106.053,16.594 106.459,15.984 106.97,15.489 C107.481,14.994 108.073,14.623 108.745,14.375 C109.417,14.128 110.125,14.004 110.867,14.004 C111.631,14.004 112.351,14.128 113.029,14.375 C113.707,14.623 114.298,14.994 114.804,15.489 C115.31,15.984 115.708,16.594 115.998,17.32 C116.289,18.046 116.434,18.888 116.434,19.845 L116.434,19.845 Z M107.898,19.845 C107.898,20.394 107.965,20.889 108.1,21.33 C108.234,21.771 108.428,22.15 108.681,22.467 C108.933,22.785 109.243,23.029 109.609,23.202 C109.974,23.374 110.393,23.46 110.867,23.46 C111.329,23.46 111.746,23.374 112.117,23.202 C112.489,23.029 112.801,22.785 113.053,22.467 C113.306,22.15 113.499,21.771 113.634,21.33 C113.768,20.889 113.836,20.394 113.836,19.845 C113.836,19.297 113.768,18.799 113.634,18.353 C113.499,17.906 113.306,17.524 113.053,17.207 C112.801,16.89 112.489,16.645 112.117,16.473 C111.746,16.301 111.329,16.215 110.867,16.215 C110.393,16.215 109.974,16.303 109.609,16.481 C109.243,16.659 108.933,16.906 108.681,17.223 C108.428,17.541 108.234,17.923 108.1,18.369 C107.965,18.815 107.898,19.308 107.898,19.845 L107.898,19.845 Z" id="Fill-124" fill="#FFFFFF" sketch:type="MSShapeGroup"></path>
            <path d="M121.21,14.133 C122.888,14.133 124.173,14.432 125.066,15.029 C125.959,15.626 126.406,16.554 126.406,17.812 C126.406,18.598 126.225,19.235 125.865,19.724 C125.505,20.214 124.986,20.598 124.308,20.878 C124.534,21.158 124.771,21.478 125.018,21.838 C125.265,22.199 125.51,22.575 125.752,22.968 C125.994,23.361 126.228,23.769 126.454,24.194 C126.68,24.619 126.89,25.036 127.083,25.444 L124.27,25.444 C124.064,25.079 123.856,24.708 123.646,24.331 C123.435,23.955 123.219,23.589 122.998,23.234 C122.776,22.879 122.558,22.543 122.342,22.225 C122.126,21.909 121.91,21.621 121.694,21.362 L120.452,21.362 L120.452,25.444 L117.934,25.444 L117.934,14.424 C118.483,14.316 119.05,14.241 119.637,14.198 C120.223,14.155 120.747,14.133 121.21,14.133 L121.21,14.133 Z M121.355,16.279 C121.172,16.279 121.008,16.285 120.863,16.296 C120.718,16.306 120.581,16.317 120.452,16.328 L120.452,19.362 L121.162,19.362 C122.108,19.362 122.785,19.243 123.194,19.006 C123.603,18.77 123.808,18.367 123.808,17.796 C123.808,17.247 123.601,16.858 123.186,16.626 C122.772,16.395 122.162,16.279 121.355,16.279 L121.355,16.279 Z" id="Fill-125" fill="#FFFFFF" sketch:type="MSShapeGroup"></path>
            <path d="M128.1,25.444 L128.1,14.262 L135.651,14.262 L135.651,16.376 L130.617,16.376 L130.617,18.571 L135.086,18.571 L135.086,20.636 L130.617,20.636 L130.617,23.33 L136.022,23.33 L136.022,25.444 L128.1,25.444" id="Fill-126" fill="#FFFFFF" sketch:type="MSShapeGroup"></path>
            <path d="M140.556,14.133 C142.234,14.133 143.519,14.432 144.413,15.029 C145.305,15.626 145.752,16.554 145.752,17.812 C145.752,18.598 145.571,19.235 145.211,19.724 C144.851,20.214 144.332,20.598 143.654,20.878 C143.88,21.158 144.117,21.478 144.364,21.838 C144.611,22.199 144.856,22.575 145.099,22.968 C145.34,23.361 145.574,23.769 145.8,24.194 C146.026,24.619 146.236,25.036 146.429,25.444 L143.616,25.444 C143.41,25.079 143.203,24.708 142.992,24.331 C142.782,23.955 142.566,23.589 142.344,23.234 C142.123,22.879 141.904,22.543 141.688,22.225 C141.472,21.909 141.256,21.621 141.04,21.362 L139.798,21.362 L139.798,25.444 L137.28,25.444 L137.28,14.424 C137.829,14.316 138.397,14.241 138.983,14.198 C139.569,14.155 140.094,14.133 140.556,14.133 L140.556,14.133 Z M140.701,16.279 C140.518,16.279 140.354,16.285 140.209,16.296 C140.064,16.306 139.927,16.317 139.798,16.328 L139.798,19.362 L140.508,19.362 C141.454,19.362 142.132,19.243 142.541,19.006 C142.949,18.77 143.154,18.367 143.154,17.796 C143.154,17.247 142.947,16.858 142.533,16.626 C142.118,16.395 141.508,16.279 140.701,16.279 L140.701,16.279 Z" id="Fill-127" fill="#FFFFFF" sketch:type="MSShapeGroup"></path>
            <path d="M150.495,23.524 C150.85,23.524 151.143,23.495 151.375,23.435 C151.606,23.377 151.791,23.296 151.932,23.194 C152.072,23.091 152.168,22.97 152.222,22.831 C152.276,22.691 152.303,22.535 152.303,22.363 C152.303,21.997 152.131,21.693 151.786,21.451 C151.442,21.209 150.85,20.948 150.011,20.669 C149.646,20.539 149.28,20.392 148.914,20.224 C148.548,20.058 148.22,19.848 147.93,19.595 C147.639,19.343 147.403,19.036 147.22,18.676 C147.037,18.316 146.946,17.877 146.946,17.36 C146.946,16.844 147.043,16.379 147.236,15.965 C147.43,15.551 147.704,15.198 148.059,14.908 C148.414,14.617 148.844,14.394 149.35,14.238 C149.855,14.082 150.425,14.004 151.06,14.004 C151.813,14.004 152.464,14.085 153.012,14.246 C153.561,14.408 154.013,14.585 154.368,14.779 L153.642,16.764 C153.33,16.602 152.983,16.46 152.601,16.336 C152.219,16.212 151.76,16.15 151.221,16.15 C150.619,16.15 150.186,16.234 149.923,16.401 C149.659,16.567 149.527,16.823 149.527,17.167 C149.527,17.371 149.576,17.543 149.673,17.683 C149.769,17.823 149.906,17.95 150.084,18.062 C150.262,18.175 150.466,18.278 150.697,18.369 C150.928,18.461 151.184,18.555 151.464,18.651 C152.045,18.867 152.55,19.079 152.98,19.288 C153.41,19.498 153.769,19.744 154.053,20.023 C154.338,20.302 154.551,20.631 154.691,21.007 C154.83,21.384 154.9,21.841 154.9,22.379 C154.9,23.422 154.535,24.232 153.803,24.807 C153.072,25.383 151.969,25.67 150.495,25.67 C150,25.67 149.554,25.641 149.156,25.582 C148.758,25.522 148.406,25.45 148.1,25.364 C147.793,25.278 147.529,25.187 147.309,25.09 C147.088,24.993 146.902,24.901 146.752,24.815 L147.462,22.814 C147.795,22.997 148.207,23.161 148.696,23.307 C149.186,23.452 149.786,23.524 150.495,23.524" id="Fill-128" fill="#FFFFFF" sketch:type="MSShapeGroup"></path>
            <path d="M56.602,0.214 L43.036,0.214 C42.861,0.328 42.686,0.437 42.509,0.565 L29.219,8.737 C29.072,8.798 28.926,8.862 28.782,8.934 C26.715,9.958 25.115,11.552 24.068,13.436 L14.151,19.481 C12.407,20.356 11.114,21.78 10.375,23.442 C8.905,24.314 6.776,25.576 3.684,27.409 L3.591,27.456 C0.904,28.885 -0.168,32.155 1.15,34.901 C1.804,36.263 2.949,37.288 4.375,37.789 C5.766,38.278 7.261,38.209 8.598,37.598 L16.084,34.777 C17.8,35.161 19.645,35.002 21.343,34.194 L31.986,30.033 C33.351,30.258 34.755,30.203 36.121,29.798 C41.114,28.314 55.043,22.558 55.561,22.302 C61.78,19.219 64.306,11.597 61.191,5.31 C60.116,3.142 58.502,1.424 56.602,0.214" id="Fill-129" fill="#FFFFFF" sketch:type="MSShapeGroup"></path>
            <path d="M51.328,1.193 C51.003,1.191 50.924,1.632 51.229,1.744 C53.773,2.684 55.978,4.559 57.278,7.182 C58.577,9.805 58.734,12.694 57.94,15.289 C57.845,15.599 58.244,15.804 58.439,15.544 C60.403,12.921 60.855,9.316 59.301,6.179 C57.747,3.043 54.604,1.219 51.328,1.193" id="Fill-130" fill="#1A1918" sketch:type="MSShapeGroup"></path>
            <path d="M12.604,33.069 C11.929,32.505 11.341,31.82 10.865,31.035 L3.839,34.8 C4.824,35.81 6.371,36.143 7.714,35.499 L12.511,33.691 C12.775,33.591 12.82,33.25 12.604,33.069" id="Fill-131" fill="#1A1918" sketch:type="MSShapeGroup"></path>
            <path d="M10.047,29.216 C9.833,28.53 9.702,27.832 9.672,27.136 C9.66,26.858 9.369,26.686 9.129,26.828 C6.868,28.169 4.786,29.403 4.786,29.403 C3.45,30.045 2.743,31.45 2.906,32.844 L10.047,29.216" id="Fill-132" fill="#1A1918" sketch:type="MSShapeGroup"></path>
            <path d="M27.741,28.317 C26.201,27.272 24.896,25.82 23.982,24.094 L13.247,29.765 C14.739,32.082 17.751,32.965 20.262,31.72 L27.691,28.816 C27.906,28.732 27.932,28.447 27.741,28.317" id="Fill-133" fill="#1A1918" sketch:type="MSShapeGroup"></path>
            <path d="M22.934,21.237 C22.696,20.146 22.609,19.042 22.698,17.957 C22.717,17.724 22.473,17.567 22.274,17.689 L15.429,21.861 C15.415,21.868 15.4,21.872 15.385,21.88 C13.467,22.83 12.364,24.766 12.366,26.781 L22.934,21.237" id="Fill-134" fill="#1A1918" sketch:type="MSShapeGroup"></path>
            <path d="M40.274,9.224 C40.572,7.258 41.446,5.399 42.807,3.908 C42.933,3.77 42.775,3.562 42.616,3.66 C39.189,5.75 30.105,11.288 29.979,11.351 C27.336,12.661 25.705,15.198 25.41,17.95 L40.274,9.224" id="Fill-135" fill="#1A1918" sketch:type="MSShapeGroup"></path>
            <path d="M51.215,20.786 C47.169,21.166 43.123,19.07 41.211,15.211 C41.089,14.966 40.979,14.718 40.879,14.468 L25.939,21.93 C26.031,22.164 26.129,22.398 26.243,22.628 C28.314,26.807 33.348,28.542 37.479,26.486 C37.482,26.484 37.485,26.482 37.487,26.481 L51.282,21.092 C51.45,21.026 51.395,20.769 51.215,20.786" id="Fill-136" fill="#1A1918" sketch:type="MSShapeGroup"></path>
        </g>
    </g>
</svg>