<?xml version="1.0" encoding="UTF-8" standalone="no"?>
<svg width="130px" height="40px" viewBox="0 0 130 40" version="1.1" xmlns="http://www.w3.org/2000/svg" xmlns:xlink="http://www.w3.org/1999/xlink" xmlns:sketch="http://www.bohemiancoding.com/sketch/ns">
    <!-- Generator: Sketch 3.2.2 (9983) - http://www.bohemiancoding.com/sketch -->
    <title>Group</title>
    <desc>Created with Sketch.</desc>
    <defs></defs>
    <g id="Page-1" stroke="none" stroke-width="1" fill="none" fill-rule="evenodd" sketch:type="MSPage">
        <g id="Group" sketch:type="MSLayerGroup">
            <path d="M110.289,39.304 L29.264,39.304 L43.932,0.483 L110.289,0.483 C121.009,0.483 129.7,9.173 129.7,19.893 C129.7,30.613 121.009,39.304 110.289,39.304" id="Fill-58" fill="#1A1918" sketch:type="MSShapeGroup"></path>
            <path d="M43.932,39.304 L19.533,39.304 C8.813,39.304 0.122,30.613 0.122,19.893 C0.122,9.173 8.813,0.483 19.533,0.483 L51.267,0.483 L43.932,39.304" id="Fill-59" fill="#C2262A" sketch:type="MSShapeGroup"></path>
            <path d="M43.932,39.304 L19.533,39.304 C8.813,39.304 0.122,30.613 0.122,19.893 C0.122,9.173 8.813,0.483 19.533,0.483 L51.267,0.483 L43.932,39.304" id="Fill-60" fill="#D51E13" sketch:type="MSShapeGroup"></path>
            <path d="M66.908,25.713 L66.908,14.531 L74.459,14.531 L74.459,16.645 L69.425,16.645 L69.425,18.84 L73.894,18.84 L73.894,20.905 L69.425,20.905 L69.425,23.599 L74.83,23.599 L74.83,25.713 L66.908,25.713" id="Fill-61" fill="#FFFFFF" sketch:type="MSShapeGroup"></path>
            <path d="M81.187,25.939 C79.37,25.939 77.984,25.434 77.032,24.423 C76.08,23.412 75.605,21.976 75.605,20.115 C75.605,19.189 75.75,18.364 76.04,17.638 C76.331,16.912 76.729,16.298 77.234,15.798 C77.74,15.298 78.342,14.919 79.041,14.661 C79.741,14.402 80.499,14.273 81.317,14.273 C81.79,14.273 82.22,14.308 82.607,14.378 C82.995,14.448 83.333,14.529 83.624,14.62 C83.914,14.712 84.156,14.806 84.35,14.903 C84.544,15 84.683,15.075 84.769,15.128 L84.043,17.162 C83.699,16.979 83.298,16.823 82.841,16.694 C82.384,16.565 81.865,16.5 81.284,16.5 C80.897,16.5 80.518,16.565 80.146,16.694 C79.775,16.823 79.447,17.03 79.162,17.315 C78.877,17.6 78.648,17.969 78.477,18.42 C78.304,18.872 78.219,19.421 78.219,20.066 C78.219,20.582 78.275,21.064 78.388,21.51 C78.501,21.957 78.684,22.341 78.936,22.664 C79.189,22.986 79.52,23.242 79.929,23.43 C80.337,23.618 80.832,23.712 81.413,23.712 C81.779,23.712 82.107,23.691 82.397,23.648 C82.688,23.605 82.946,23.554 83.172,23.495 C83.398,23.436 83.597,23.368 83.769,23.293 C83.941,23.218 84.097,23.148 84.237,23.083 L84.931,25.1 C84.576,25.315 84.075,25.509 83.43,25.681 C82.785,25.853 82.037,25.939 81.187,25.939" id="Fill-62" fill="#FFFFFF" sketch:type="MSShapeGroup"></path>
            <path d="M85.948,14.531 L88.465,14.531 L88.465,25.713 L85.948,25.713 L85.948,14.531 Z" id="Fill-63" fill="#FFFFFF" sketch:type="MSShapeGroup"></path>
            <path d="M90.449,25.713 L90.449,14.531 L98.001,14.531 L98.001,16.645 L92.966,16.645 L92.966,18.84 L97.436,18.84 L97.436,20.905 L92.966,20.905 L92.966,23.599 L98.372,23.599 L98.372,25.713 L90.449,25.713" id="Fill-64" fill="#FFFFFF" sketch:type="MSShapeGroup"></path>
            <path d="M102.68,23.793 C103.035,23.793 103.328,23.764 103.559,23.704 C103.79,23.645 103.976,23.565 104.115,23.463 C104.255,23.36 104.352,23.24 104.406,23.1 C104.46,22.96 104.486,22.804 104.486,22.632 C104.486,22.266 104.314,21.962 103.97,21.72 C103.626,21.478 103.035,21.217 102.196,20.937 C101.829,20.808 101.464,20.661 101.098,20.494 C100.733,20.327 100.404,20.117 100.114,19.864 C99.823,19.612 99.587,19.305 99.404,18.945 C99.221,18.585 99.129,18.146 99.129,17.629 C99.129,17.113 99.226,16.648 99.42,16.234 C99.614,15.82 99.888,15.467 100.243,15.177 C100.598,14.887 101.028,14.664 101.534,14.507 C102.039,14.351 102.609,14.273 103.244,14.273 C103.997,14.273 104.648,14.354 105.197,14.516 C105.745,14.677 106.197,14.854 106.552,15.048 L105.826,17.033 C105.514,16.871 105.167,16.729 104.785,16.605 C104.403,16.481 103.943,16.419 103.406,16.419 C102.803,16.419 102.37,16.503 102.107,16.67 C101.843,16.836 101.711,17.092 101.711,17.436 C101.711,17.641 101.76,17.813 101.856,17.952 C101.953,18.092 102.091,18.219 102.268,18.331 C102.445,18.444 102.65,18.547 102.881,18.638 C103.112,18.73 103.368,18.824 103.647,18.92 C104.228,19.136 104.734,19.348 105.164,19.558 C105.595,19.768 105.952,20.012 106.237,20.292 C106.522,20.572 106.735,20.9 106.875,21.276 C107.015,21.653 107.085,22.11 107.085,22.648 C107.085,23.691 106.719,24.501 105.988,25.076 C105.256,25.652 104.153,25.939 102.68,25.939 C102.185,25.939 101.738,25.91 101.34,25.851 C100.942,25.791 100.59,25.719 100.283,25.633 C99.977,25.547 99.713,25.455 99.493,25.359 C99.272,25.262 99.087,25.17 98.936,25.084 L99.646,23.083 C99.979,23.266 100.391,23.43 100.88,23.576 C101.369,23.721 101.969,23.793 102.68,23.793" id="Fill-65" fill="#FFFFFF" sketch:type="MSShapeGroup"></path>
            <path d="M17.218,0.633 C14.779,2.564 13.204,5.549 13.204,8.899 L13.204,12.042 L12.249,12.749 C11.207,13.521 10.585,14.756 10.585,16.053 L10.585,32.483 C10.585,33.74 11.216,34.891 12.275,35.561 C14.452,36.939 16.944,38.199 19.64,39.304 L40.675,39.304 C41.082,38.656 41.318,37.904 41.318,37.129 L41.318,20.876 C41.318,19.261 40.312,17.828 38.801,17.274 L38.801,13.466 C38.801,7.941 35.809,3.115 31.365,0.483 L19.533,0.483 C18.748,0.483 17.979,0.543 17.218,0.633 L17.218,0.633 Z M23.301,8.316 C26.227,8.558 28.551,10.955 28.678,13.912 L23.301,12.127 L23.301,8.316 L23.301,8.316 Z" id="Fill-66" fill="#FFFFFF" sketch:type="MSShapeGroup"></path>
            <path d="M35.56,21.828 C35.493,21.892 35.402,21.923 35.31,21.912 C32.485,21.577 29.434,20.955 26.303,20.032 C21.444,18.601 17.139,16.666 13.822,14.563 C13.688,14.478 13.518,14.574 13.518,14.733 L13.518,31.392 C13.518,31.635 13.639,31.861 13.844,31.991 C17.158,34.088 21.455,36.018 26.303,37.447 C29.281,38.324 32.188,38.93 34.897,39.275 C35.253,39.321 35.605,39.2 35.864,38.951 C36.441,38.397 37.485,37.393 38.031,36.868 C38.257,36.651 38.384,36.352 38.384,36.037 L38.384,19.306 C38.384,19.255 38.322,19.228 38.284,19.263 L35.56,21.828 L35.56,21.828 Z M35.377,21.929 L35.332,21.913 C35.35,21.915 35.377,21.929 35.377,21.929 L35.377,21.929 Z" id="Fill-67" fill="#1A1918" sketch:type="MSShapeGroup"></path>
            <path d="M23.703,0.483 C19.542,0.483 16.138,3.887 16.138,8.048 L16.138,14.806 C16.126,14.84 16.118,14.875 16.118,14.91 C16.118,15.345 17.069,15.697 18.243,15.697 C19.416,15.697 20.368,15.345 20.368,14.91 L20.368,6.989 C20.368,5.638 21.463,4.543 22.813,4.543 C27.675,4.543 31.617,8.485 31.617,13.347 L31.617,20.051 C31.617,20.486 32.569,20.839 33.742,20.839 C34.916,20.839 35.867,20.486 35.867,20.051 L35.867,12.647 C35.867,5.956 30.393,0.483 23.703,0.483" id="Fill-68" fill="#1A1918" sketch:type="MSShapeGroup"></path>
            <path d="M27.687,25.446 C26.007,23.03 22.924,22.269 20.8,23.746 C18.676,25.223 18.316,28.378 19.996,30.794 C21.201,32.528 23.128,33.391 24.906,33.205 C25.325,33.803 26.016,34.196 26.801,34.196 C26.886,34.196 26.966,34.18 27.048,34.171 C26.846,33.768 26.59,33.262 26.347,32.783 C26.528,32.693 26.713,32.613 26.884,32.495 C29.007,31.017 29.367,27.862 27.687,25.446 L27.687,25.446 Z M25.532,27.929 C25.319,28.228 25.009,28.422 24.66,28.514 L24.66,30.504 C24.66,30.966 24.282,31.344 23.82,31.344 C23.359,31.344 22.981,30.966 22.981,30.504 L22.981,28.18 C22.975,28.176 22.968,28.174 22.963,28.17 C22.084,27.544 21.811,26.421 22.352,25.662 C22.893,24.903 24.043,24.795 24.922,25.421 C25.8,26.047 26.073,27.17 25.532,27.929 L25.532,27.929 Z" id="Fill-69" fill="#FFFFFF" sketch:type="MSShapeGroup"></path>
        </g>
    </g>
</svg>