<?xml version="1.0" encoding="UTF-8" standalone="no"?>
<svg width="176px" height="40px" viewBox="0 0 176 40" version="1.1" xmlns="http://www.w3.org/2000/svg" xmlns:xlink="http://www.w3.org/1999/xlink" xmlns:sketch="http://www.bohemiancoding.com/sketch/ns">
    <!-- Generator: Sketch 3.2.2 (9983) - http://www.bohemiancoding.com/sketch -->
    <title>Group</title>
    <desc>Created with Sketch.</desc>
    <defs></defs>
    <g id="Page-1" stroke="none" stroke-width="1" fill="none" fill-rule="evenodd" sketch:type="MSPage">
        <g id="Group" sketch:type="MSLayerGroup">
            <path d="M156.429,39.757 L29.93,39.757 L44.599,0.936 L156.429,0.936 C167.149,0.936 175.839,9.627 175.839,20.347 C175.839,31.067 167.149,39.757 156.429,39.757" id="Fill-92" fill="#1A1918" sketch:type="MSShapeGroup"></path>
            <path d="M44.599,39.757 L20.199,39.757 C9.479,39.757 0.788,31.067 0.788,20.347 C0.788,9.627 9.479,0.936 20.199,0.936 L51.933,0.936 L44.599,39.757" id="Fill-93" fill="#C2262A" sketch:type="MSShapeGroup"></path>
            <path d="M44.599,39.757 L20.199,39.757 C9.479,39.757 0.788,31.067 0.788,20.347 C0.788,9.627 9.479,0.936 20.199,0.936 L51.933,0.936 L44.599,39.757" id="Fill-94" fill="#D51E13" sketch:type="MSShapeGroup"></path>
            <path d="M70.543,14.985 C70.737,15.34 70.961,15.779 71.214,16.3 C71.468,16.822 71.732,17.387 72.007,17.995 C72.282,18.603 72.554,19.224 72.824,19.858 C73.094,20.493 73.347,21.09 73.585,21.649 C73.822,21.09 74.075,20.493 74.345,19.858 C74.614,19.224 74.887,18.603 75.162,17.995 C75.437,17.387 75.701,16.822 75.955,16.3 C76.208,15.779 76.432,15.34 76.626,14.985 L78.917,14.985 C79.025,15.728 79.124,16.559 79.216,17.478 C79.307,18.398 79.388,19.356 79.458,20.35 C79.528,21.345 79.592,22.343 79.651,23.344 C79.711,24.344 79.762,25.285 79.805,26.167 L77.352,26.167 C77.32,25.081 77.277,23.898 77.223,22.617 C77.169,21.337 77.088,20.047 76.981,18.745 C76.787,19.197 76.571,19.697 76.334,20.246 C76.096,20.794 75.861,21.343 75.629,21.891 C75.398,22.44 75.174,22.964 74.958,23.464 C74.742,23.965 74.559,24.393 74.408,24.747 L72.649,24.747 C72.497,24.393 72.314,23.965 72.098,23.464 C71.883,22.964 71.658,22.44 71.426,21.891 C71.195,21.343 70.96,20.794 70.722,20.246 C70.485,19.697 70.269,19.197 70.075,18.745 C69.967,20.047 69.887,21.337 69.833,22.617 C69.779,23.898 69.736,25.081 69.704,26.167 L67.251,26.167 C67.294,25.285 67.345,24.344 67.405,23.344 C67.464,22.343 67.528,21.345 67.598,20.35 C67.668,19.356 67.749,18.398 67.84,17.478 C67.932,16.559 68.031,15.728 68.139,14.985 L70.543,14.985" id="Fill-95" fill="#FFFFFF" sketch:type="MSShapeGroup"></path>
            <path d="M88.953,26.167 C88.233,24.887 87.453,23.623 86.614,22.375 C85.775,21.127 84.882,19.95 83.935,18.842 L83.935,26.167 L81.451,26.167 L81.451,14.985 L83.5,14.985 C83.855,15.34 84.247,15.776 84.678,16.292 C85.108,16.809 85.546,17.36 85.993,17.946 C86.439,18.533 86.883,19.14 87.324,19.77 C87.765,20.399 88.179,21.004 88.567,21.585 L88.567,14.985 L91.067,14.985 L91.067,26.167 L88.953,26.167" id="Fill-96" fill="#FFFFFF" sketch:type="MSShapeGroup"></path>
            <path d="M93.052,26.167 L93.052,14.985 L100.604,14.985 L100.604,17.099 L95.569,17.099 L95.569,19.294 L100.039,19.294 L100.039,21.359 L95.569,21.359 L95.569,24.053 L100.975,24.053 L100.975,26.167 L93.052,26.167" id="Fill-97" fill="#FFFFFF" sketch:type="MSShapeGroup"></path>
            <path d="M105.202,14.985 C105.396,15.34 105.62,15.779 105.873,16.3 C106.127,16.822 106.391,17.387 106.666,17.995 C106.941,18.603 107.213,19.224 107.483,19.858 C107.753,20.493 108.006,21.09 108.243,21.649 C108.481,21.09 108.734,20.493 109.004,19.858 C109.274,19.224 109.546,18.603 109.821,17.995 C110.096,17.387 110.36,16.822 110.614,16.3 C110.867,15.779 111.091,15.34 111.285,14.985 L113.576,14.985 C113.683,15.728 113.783,16.559 113.875,17.478 C113.966,18.398 114.047,19.356 114.117,20.35 C114.187,21.345 114.251,22.343 114.31,23.344 C114.369,24.344 114.421,25.285 114.464,26.167 L112.011,26.167 C111.979,25.081 111.936,23.898 111.882,22.617 C111.828,21.337 111.747,20.047 111.64,18.745 C111.446,19.197 111.23,19.697 110.993,20.246 C110.755,20.794 110.52,21.343 110.288,21.891 C110.056,22.44 109.833,22.964 109.617,23.464 C109.401,23.965 109.217,24.393 109.067,24.747 L107.307,24.747 C107.156,24.393 106.973,23.965 106.757,23.464 C106.542,22.964 106.317,22.44 106.085,21.891 C105.853,21.343 105.619,20.794 105.382,20.246 C105.144,19.697 104.928,19.197 104.734,18.745 C104.626,20.047 104.546,21.337 104.492,22.617 C104.438,23.898 104.395,25.081 104.363,26.167 L101.91,26.167 C101.953,25.285 102.004,24.344 102.064,23.344 C102.123,22.343 102.187,21.345 102.257,20.35 C102.327,19.356 102.407,18.398 102.499,17.478 C102.59,16.559 102.69,15.728 102.798,14.985 L105.202,14.985" id="Fill-98" fill="#FFFFFF" sketch:type="MSShapeGroup"></path>
            <path d="M126.759,20.568 C126.759,21.526 126.616,22.367 126.331,23.093 C126.046,23.82 125.656,24.427 125.162,24.917 C124.667,25.406 124.078,25.775 123.395,26.022 C122.712,26.27 121.977,26.393 121.192,26.393 C120.428,26.393 119.708,26.27 119.03,26.022 C118.352,25.775 117.76,25.406 117.255,24.917 C116.749,24.427 116.351,23.82 116.061,23.093 C115.771,22.367 115.625,21.526 115.625,20.568 C115.625,19.611 115.776,18.769 116.077,18.043 C116.378,17.317 116.785,16.707 117.295,16.212 C117.806,15.717 118.398,15.346 119.071,15.098 C119.742,14.851 120.45,14.727 121.192,14.727 C121.956,14.727 122.677,14.851 123.354,15.098 C124.032,15.346 124.623,15.717 125.129,16.212 C125.635,16.707 126.033,17.317 126.323,18.043 C126.614,18.769 126.759,19.611 126.759,20.568 L126.759,20.568 Z M118.223,20.568 C118.223,21.117 118.291,21.612 118.425,22.052 C118.559,22.494 118.753,22.873 119.006,23.19 C119.258,23.508 119.568,23.753 119.934,23.925 C120.3,24.097 120.719,24.183 121.192,24.183 C121.655,24.183 122.071,24.097 122.442,23.925 C122.814,23.753 123.126,23.508 123.379,23.19 C123.631,22.873 123.825,22.494 123.959,22.052 C124.094,21.612 124.161,21.117 124.161,20.568 C124.161,20.02 124.094,19.522 123.959,19.076 C123.825,18.629 123.631,18.247 123.379,17.93 C123.126,17.613 122.814,17.368 122.442,17.196 C122.071,17.024 121.655,16.938 121.192,16.938 C120.719,16.938 120.3,17.026 119.934,17.204 C119.568,17.381 119.258,17.629 119.006,17.946 C118.753,18.264 118.559,18.646 118.425,19.092 C118.291,19.538 118.223,20.03 118.223,20.568 L118.223,20.568 Z" id="Fill-99" fill="#FFFFFF" sketch:type="MSShapeGroup"></path>
            <path d="M135.762,26.167 C135.042,24.887 134.262,23.623 133.423,22.375 C132.584,21.127 131.691,19.95 130.745,18.842 L130.745,26.167 L128.26,26.167 L128.26,14.985 L130.309,14.985 C130.664,15.34 131.056,15.776 131.486,16.292 C131.917,16.809 132.355,17.36 132.801,17.946 C133.248,18.533 133.692,19.14 134.133,19.77 C134.573,20.399 134.988,21.004 135.375,21.585 L135.375,14.985 L137.876,14.985 L137.876,26.167 L135.762,26.167" id="Fill-100" fill="#FFFFFF" sketch:type="MSShapeGroup"></path>
            <path d="M139.861,14.985 L142.378,14.985 L142.378,26.167 L139.861,26.167 L139.861,14.985 Z" id="Fill-101" fill="#FFFFFF" sketch:type="MSShapeGroup"></path>
            <path d="M149.462,26.393 C147.644,26.393 146.258,25.888 145.307,24.876 C144.355,23.865 143.879,22.429 143.879,20.568 C143.879,19.643 144.024,18.818 144.314,18.092 C144.605,17.365 145.003,16.752 145.508,16.252 C146.014,15.752 146.616,15.373 147.315,15.115 C148.015,14.856 148.773,14.727 149.591,14.727 C150.064,14.727 150.494,14.762 150.881,14.832 C151.269,14.902 151.608,14.983 151.898,15.074 C152.188,15.166 152.43,15.26 152.624,15.356 C152.818,15.453 152.957,15.529 153.043,15.582 L152.317,17.616 C151.973,17.433 151.572,17.277 151.115,17.147 C150.658,17.019 150.139,16.954 149.558,16.954 C149.171,16.954 148.792,17.019 148.42,17.147 C148.05,17.277 147.721,17.484 147.436,17.769 C147.151,18.054 146.922,18.422 146.751,18.874 C146.578,19.326 146.493,19.875 146.493,20.52 C146.493,21.036 146.549,21.518 146.662,21.964 C146.775,22.411 146.958,22.795 147.21,23.118 C147.463,23.44 147.794,23.696 148.203,23.884 C148.611,24.072 149.106,24.166 149.687,24.166 C150.053,24.166 150.381,24.145 150.672,24.102 C150.962,24.059 151.22,24.008 151.446,23.948 C151.672,23.89 151.871,23.822 152.043,23.747 C152.215,23.672 152.371,23.602 152.511,23.537 L153.205,25.554 C152.85,25.769 152.35,25.963 151.705,26.135 C151.059,26.307 150.311,26.393 149.462,26.393" id="Fill-102" fill="#FFFFFF" sketch:type="MSShapeGroup"></path>
            <path d="M1.047,15.124 L25.342,1.026 C25.519,0.923 25.739,0.922 25.917,1.024 L53.572,16.868 L55.308,15.725 L55.531,16.684 C55.576,16.882 55.599,17.067 55.599,17.25 C55.601,18.131 55.157,18.937 54.413,19.406 L33.042,31.944 C31.606,32.787 29.824,32.78 28.395,31.925 L1.044,15.562 C0.877,15.463 0.879,15.221 1.047,15.124" id="Fill-103" fill="#1A1918" sketch:type="MSShapeGroup"></path>
            <path id="Stroke-104" stroke="#FFFFFF" stroke-width="2" stroke-linecap="round" sketch:type="MSShapeGroup"></path>
            <path d="M11.686,17.688 C11.47,17.688 11.261,17.576 11.145,17.376 C10.971,17.078 11.073,16.695 11.371,16.522 L27.946,6.904 C28.244,6.73 28.626,6.832 28.8,7.131 C28.973,7.429 28.872,7.812 28.573,7.985 L11.999,17.603 C11.9,17.66 11.792,17.688 11.686,17.688" id="Fill-105" fill="#FFFFFF" sketch:type="MSShapeGroup"></path>
            <path d="M28.261,12.502 C28.045,12.502 27.836,12.391 27.72,12.191 C27.547,11.893 27.648,11.51 27.947,11.337 L31.645,9.191 C31.943,9.017 32.326,9.119 32.499,9.417 C32.672,9.716 32.571,10.098 32.272,10.271 L28.574,12.418 C28.475,12.475 28.367,12.502 28.261,12.502" id="Fill-106" fill="#FFFFFF" sketch:type="MSShapeGroup"></path>
            <path d="M21.552,16.395 C21.336,16.395 21.127,16.284 21.011,16.084 C20.837,15.786 20.939,15.403 21.237,15.23 L25.607,12.694 C25.906,12.521 26.288,12.622 26.461,12.921 C26.635,13.219 26.533,13.602 26.235,13.775 L21.865,16.311 C21.766,16.368 21.658,16.395 21.552,16.395" id="Fill-107" fill="#FFFFFF" sketch:type="MSShapeGroup"></path>
            <path d="M15.398,19.966 C15.183,19.966 14.974,19.855 14.858,19.655 C14.684,19.357 14.786,18.974 15.084,18.801 L18.841,16.621 C19.139,16.447 19.521,16.549 19.695,16.848 C19.868,17.146 19.766,17.529 19.468,17.702 L15.712,19.882 C15.613,19.939 15.505,19.966 15.398,19.966" id="Fill-108" fill="#FFFFFF" sketch:type="MSShapeGroup"></path>
            <path d="M33.822,13.708 C33.607,13.708 33.397,13.597 33.281,13.397 C33.108,13.098 33.21,12.716 33.508,12.543 L35.49,11.393 C35.789,11.218 36.171,11.321 36.344,11.619 C36.518,11.918 36.416,12.3 36.118,12.473 L34.135,13.623 C34.036,13.681 33.929,13.708 33.822,13.708" id="Fill-109" fill="#FFFFFF" sketch:type="MSShapeGroup"></path>
            <path d="M23.829,19.507 C23.614,19.507 23.404,19.396 23.288,19.196 C23.115,18.897 23.217,18.515 23.515,18.342 L31.062,13.962 C31.36,13.788 31.742,13.89 31.916,14.189 C32.089,14.487 31.987,14.87 31.689,15.043 L24.142,19.422 C24.043,19.48 23.936,19.507 23.829,19.507" id="Fill-110" fill="#FFFFFF" sketch:type="MSShapeGroup"></path>
            <path d="M19.376,22.091 C19.161,22.091 18.951,21.979 18.835,21.78 C18.662,21.481 18.763,21.099 19.062,20.925 L21.237,19.664 C21.535,19.489 21.918,19.591 22.091,19.89 C22.264,20.189 22.163,20.571 21.864,20.744 L19.689,22.007 C19.59,22.064 19.483,22.091 19.376,22.091" id="Fill-111" fill="#FFFFFF" sketch:type="MSShapeGroup"></path>
            <path d="M23.188,24.274 C22.972,24.274 22.763,24.162 22.647,23.962 C22.474,23.664 22.575,23.281 22.874,23.108 L35.783,15.617 C36.081,15.443 36.464,15.545 36.637,15.844 C36.81,16.142 36.709,16.525 36.41,16.698 L23.501,24.189 C23.402,24.247 23.294,24.274 23.188,24.274" id="Fill-112" fill="#FFFFFF" sketch:type="MSShapeGroup"></path>
            <path d="M27.033,26.475 C26.818,26.475 26.608,26.364 26.492,26.164 C26.319,25.866 26.42,25.483 26.719,25.31 L35.783,20.05 C36.081,19.876 36.464,19.978 36.637,20.277 C36.81,20.575 36.709,20.958 36.41,21.131 L27.346,26.391 C27.247,26.448 27.14,26.475 27.033,26.475" id="Fill-113" fill="#FFFFFF" sketch:type="MSShapeGroup"></path>
            <path d="M58.416,24.319 L32.09,39.757 L38.652,39.757 L56.719,29.109 C57.921,28.4 58.649,27.144 58.666,25.75 C58.672,25.25 58.583,24.768 58.416,24.319" id="Fill-114" fill="#FFFFFF" sketch:type="MSShapeGroup"></path>
            <path d="M2.108,27.34 L22.865,39.757 L29.359,39.757 L0.925,22.569 C1.115,24.234 1.524,25.83 2.108,27.34" id="Fill-115" fill="#FFFFFF" sketch:type="MSShapeGroup"></path>
            <path d="M18.728,1.011 L4.101,9.499 C3.013,11.109 2.17,12.896 1.603,14.801 L25.342,1.026 C25.431,0.974 25.53,0.948 25.629,0.948 L19.967,0.948 C19.55,0.953 19.138,0.98 18.728,1.011" id="Fill-116" fill="#FFFFFF" sketch:type="MSShapeGroup"></path>
            <path d="M58.554,14.972 C58.308,13.91 57.558,13.035 56.545,12.63 C56.146,12.471 55.726,12.392 55.308,12.392 C54.666,12.392 54.027,12.578 53.475,12.941 L53.451,12.958 L32.488,0.948 L25.629,0.948 C25.728,0.948 25.828,0.973 25.917,1.024 L51.886,15.902 L31.959,27.633 C31.746,27.759 31.6,27.973 31.56,28.217 C31.52,28.461 31.591,28.711 31.753,28.898 C32.006,29.189 32.14,29.541 32.14,29.916 C32.14,30.356 31.949,30.755 31.642,31.048 C31.538,31.15 31.42,31.232 31.292,31.302 C31.277,31.31 31.26,31.318 31.244,31.326 C31.003,31.447 30.724,31.512 30.423,31.538 C30.412,31.538 30.401,31.541 30.39,31.541 C30.381,31.541 30.373,31.547 30.363,31.547 C28.07,31.706 24.43,29.552 24.418,29.546 L1.359,15.751 C1.078,16.905 0.904,18.099 0.84,19.324 L26.684,34.784 C27.908,35.516 29.309,35.904 30.735,35.904 C32.138,35.904 33.519,35.528 34.728,34.819 C34.728,34.819 56.159,22.245 56.188,22.226 C57.909,21.142 58.935,19.28 58.932,17.235 C58.93,16.799 58.879,16.371 58.777,15.931 L58.554,14.972 L58.554,14.972 Z M54.413,19.406 L33.086,31.919 C33.533,31.363 33.806,30.672 33.806,29.916 C33.806,29.474 33.714,29.04 33.538,28.638 L53.55,16.855 L53.572,16.868 L53.937,16.628 L55.328,15.809 L55.531,16.684 C55.576,16.881 55.599,17.067 55.599,17.25 C55.601,18.131 55.157,18.937 54.413,19.406 L54.413,19.406 Z" id="Fill-117" fill="#FFFFFF" sketch:type="MSShapeGroup"></path>
        </g>
    </g>
</svg>