<?xml version="1.0" encoding="UTF-8" standalone="no"?>
<svg width="242px" height="40px" viewBox="0 0 242 40" version="1.1" xmlns="http://www.w3.org/2000/svg" xmlns:xlink="http://www.w3.org/1999/xlink" xmlns:sketch="http://www.bohemiancoding.com/sketch/ns">
    <!-- Generator: Sketch 3.2.2 (9983) - http://www.bohemiancoding.com/sketch -->
    <title>Group</title>
    <desc>Created with Sketch.</desc>
    <defs></defs>
    <g id="Page-1" stroke="none" stroke-width="1" fill="none" fill-rule="evenodd" sketch:type="MSPage">
        <g id="Group" sketch:type="MSLayerGroup" transform="translate(-0.500000, 0.188000)">
            <path d="M222.7,39.184 L29.919,39.184 L44.588,0.363 L222.7,0.363 C233.42,0.363 242.11,9.053 242.11,19.773 C242.11,30.493 233.42,39.184 222.7,39.184" id="Fill-1" fill="#1A1918" sketch:type="MSShapeGroup"></path>
            <path d="M44.588,39.184 L20.188,39.184 C9.468,39.184 0.778,30.493 0.778,19.773 C0.778,9.053 9.468,0.363 20.188,0.363 L51.922,0.363 L44.588,39.184" id="Fill-2" fill="#D51E13" sketch:type="MSShapeGroup"></path>
            <path d="M69.796,14.283 C71.463,14.283 72.743,14.576 73.636,15.162 C74.529,15.749 74.975,16.709 74.975,18.042 C74.975,19.387 74.524,20.358 73.62,20.955 C72.716,21.551 71.425,21.85 69.747,21.85 L68.957,21.85 L68.957,25.594 L66.44,25.594 L66.44,14.573 C66.988,14.466 67.569,14.39 68.182,14.347 C68.795,14.304 69.333,14.283 69.796,14.283 L69.796,14.283 Z M69.957,16.429 C69.774,16.429 69.594,16.434 69.417,16.445 C69.239,16.456 69.086,16.467 68.957,16.477 L68.957,19.704 L69.747,19.704 C70.619,19.704 71.275,19.586 71.716,19.349 C72.157,19.113 72.378,18.672 72.378,18.026 C72.378,17.714 72.321,17.456 72.208,17.252 C72.095,17.048 71.934,16.883 71.724,16.76 C71.514,16.636 71.258,16.55 70.958,16.501 C70.656,16.453 70.323,16.429 69.957,16.429 L69.957,16.429 Z" id="Fill-3" fill="#FFFFFF" sketch:type="MSShapeGroup"></path>
            <path d="M82.638,25.594 C82.514,25.206 82.38,24.806 82.237,24.397 C82.094,23.988 81.951,23.58 81.809,23.173 L77.442,23.173 C77.301,23.581 77.159,23.99 77.017,24.4 C76.875,24.81 76.743,25.208 76.621,25.594 L74.007,25.594 C74.428,24.389 74.827,23.276 75.205,22.254 C75.583,21.232 75.952,20.269 76.313,19.365 C76.675,18.462 77.031,17.604 77.381,16.792 C77.732,15.98 78.097,15.186 78.474,14.412 L80.86,14.412 C81.228,15.186 81.59,15.98 81.946,16.792 C82.303,17.604 82.662,18.462 83.024,19.365 C83.386,20.269 83.757,21.232 84.135,22.254 C84.513,23.276 84.913,24.389 85.334,25.594 L82.638,25.594 L82.638,25.594 Z M79.614,16.945 C79.558,17.108 79.476,17.328 79.368,17.608 C79.26,17.887 79.137,18.211 78.998,18.577 C78.86,18.943 78.705,19.346 78.535,19.787 C78.364,20.227 78.191,20.689 78.015,21.173 L81.212,21.173 C81.041,20.688 80.875,20.225 80.715,19.783 C80.555,19.341 80.402,18.937 80.258,18.57 C80.114,18.204 79.987,17.881 79.878,17.602 C79.769,17.323 79.681,17.104 79.614,16.945 L79.614,16.945 Z" id="Fill-4" fill="#FFFFFF" sketch:type="MSShapeGroup"></path>
            <path d="M88.656,18.998 C89.108,18.236 89.539,17.475 89.948,16.713 C90.357,15.952 90.734,15.184 91.079,14.412 L93.854,14.412 C93.241,15.617 92.606,16.784 91.95,17.913 C91.294,19.043 90.6,20.178 89.869,21.318 L89.869,25.594 L87.352,25.594 L87.352,21.35 C86.62,20.21 85.924,19.07 85.262,17.929 C84.6,16.789 83.963,15.617 83.35,14.412 L86.271,14.412 C86.614,15.184 86.985,15.952 87.383,16.713 C87.78,17.475 88.204,18.236 88.656,18.998" id="Fill-5" fill="#FFFFFF" sketch:type="MSShapeGroup"></path>
            <path d="M97.356,14.412 C97.55,14.767 97.774,15.205 98.027,15.727 C98.28,16.249 98.545,16.814 98.82,17.421 C99.095,18.029 99.367,18.65 99.637,19.285 C99.906,19.92 100.16,20.517 100.397,21.076 C100.634,20.517 100.888,19.92 101.158,19.285 C101.427,18.65 101.7,18.029 101.974,17.421 C102.25,16.814 102.514,16.249 102.767,15.727 C103.021,15.205 103.245,14.767 103.439,14.412 L105.73,14.412 C105.837,15.154 105.937,15.985 106.029,16.905 C106.12,17.825 106.2,18.782 106.271,19.777 C106.341,20.772 106.405,21.77 106.464,22.77 C106.523,23.77 106.575,24.712 106.618,25.594 L104.165,25.594 C104.133,24.507 104.089,23.324 104.036,22.044 C103.982,20.764 103.901,19.473 103.794,18.172 C103.6,18.623 103.384,19.124 103.146,19.672 C102.909,20.221 102.674,20.769 102.442,21.318 C102.21,21.866 101.986,22.391 101.771,22.891 C101.555,23.391 101.371,23.819 101.22,24.174 L99.461,24.174 C99.31,23.819 99.127,23.391 98.911,22.891 C98.695,22.391 98.471,21.866 98.239,21.318 C98.007,20.769 97.772,20.221 97.535,19.672 C97.298,19.124 97.082,18.623 96.888,18.172 C96.78,19.473 96.7,20.764 96.646,22.044 C96.592,23.324 96.549,24.507 96.517,25.594 L94.064,25.594 C94.107,24.712 94.158,23.77 94.217,22.77 C94.276,21.77 94.341,20.772 94.411,19.777 C94.481,18.782 94.561,17.825 94.653,16.905 C94.744,15.985 94.844,15.154 94.951,14.412 L97.356,14.412" id="Fill-6" fill="#FFFFFF" sketch:type="MSShapeGroup"></path>
            <path d="M108.263,25.594 L108.263,14.412 L115.814,14.412 L115.814,16.525 L110.78,16.525 L110.78,18.72 L115.25,18.72 L115.25,20.785 L110.78,20.785 L110.78,23.48 L116.186,23.48 L116.186,25.594 L108.263,25.594" id="Fill-7" fill="#FFFFFF" sketch:type="MSShapeGroup"></path>
            <path d="M124.947,25.594 C124.226,24.314 123.447,23.05 122.608,21.802 C121.768,20.554 120.875,19.376 119.929,18.268 L119.929,25.594 L117.444,25.594 L117.444,14.412 L119.493,14.412 C119.848,14.767 120.24,15.203 120.671,15.719 C121.101,16.235 121.54,16.787 121.986,17.373 C122.432,17.959 122.876,18.567 123.317,19.196 C123.758,19.826 124.173,20.431 124.56,21.011 L124.56,14.412 L127.061,14.412 L127.061,25.594 L124.947,25.594" id="Fill-8" fill="#FFFFFF" sketch:type="MSShapeGroup"></path>
            <path d="M137.339,14.412 L137.339,16.558 L133.967,16.558 L133.967,25.594 L131.45,25.594 L131.45,16.558 L128.078,16.558 L128.078,14.412 L137.339,14.412" id="Fill-9" fill="#FFFFFF" sketch:type="MSShapeGroup"></path>
            <path d="M136.581,19.688 L141.261,19.688 L141.261,21.866 L136.581,21.866 L136.581,19.688 Z" id="Fill-10" fill="#FFFFFF" sketch:type="MSShapeGroup"></path>
            <path d="M145.714,14.283 C147.381,14.283 148.661,14.576 149.554,15.162 C150.447,15.749 150.893,16.709 150.893,18.042 C150.893,19.387 150.441,20.358 149.538,20.955 C148.634,21.551 147.343,21.85 145.665,21.85 L144.875,21.85 L144.875,25.594 L142.358,25.594 L142.358,14.573 C142.906,14.466 143.487,14.39 144.1,14.347 C144.713,14.304 145.251,14.283 145.714,14.283 L145.714,14.283 Z M145.875,16.429 C145.692,16.429 145.512,16.434 145.334,16.445 C145.157,16.456 145.003,16.467 144.875,16.477 L144.875,19.704 L145.665,19.704 C146.536,19.704 147.192,19.586 147.634,19.349 C148.075,19.113 148.296,18.672 148.296,18.026 C148.296,17.714 148.239,17.456 148.126,17.252 C148.013,17.048 147.851,16.883 147.642,16.76 C147.432,16.636 147.176,16.55 146.876,16.501 C146.574,16.453 146.24,16.429 145.875,16.429 L145.875,16.429 Z" id="Fill-11" fill="#FFFFFF" sketch:type="MSShapeGroup"></path>
            <path d="M155.427,14.283 C157.105,14.283 158.39,14.581 159.284,15.178 C160.176,15.775 160.623,16.703 160.623,17.962 C160.623,18.747 160.442,19.384 160.082,19.874 C159.722,20.363 159.203,20.748 158.525,21.027 C158.751,21.307 158.988,21.627 159.235,21.987 C159.483,22.348 159.727,22.724 159.97,23.117 C160.211,23.51 160.446,23.918 160.671,24.343 C160.897,24.769 161.107,25.185 161.301,25.594 L158.487,25.594 C158.281,25.229 158.074,24.857 157.863,24.48 C157.653,24.104 157.437,23.738 157.215,23.383 C156.994,23.028 156.775,22.693 156.559,22.375 C156.343,22.058 156.127,21.77 155.911,21.511 L154.669,21.511 L154.669,25.594 L152.152,25.594 L152.152,14.573 C152.7,14.466 153.268,14.39 153.854,14.347 C154.44,14.304 154.965,14.283 155.427,14.283 L155.427,14.283 Z M155.572,16.429 C155.389,16.429 155.225,16.434 155.081,16.445 C154.935,16.456 154.798,16.467 154.669,16.477 L154.669,19.511 L155.379,19.511 C156.325,19.511 157.003,19.393 157.412,19.156 C157.82,18.919 158.025,18.516 158.025,17.945 C158.025,17.397 157.818,17.007 157.404,16.776 C156.989,16.544 156.379,16.429 155.572,16.429 L155.572,16.429 Z" id="Fill-12" fill="#FFFFFF" sketch:type="MSShapeGroup"></path>
            <path d="M172.676,19.995 C172.676,20.952 172.533,21.794 172.249,22.52 C171.963,23.246 171.573,23.854 171.078,24.343 C170.584,24.833 169.995,25.201 169.312,25.448 C168.628,25.696 167.894,25.819 167.11,25.819 C166.346,25.819 165.625,25.696 164.947,25.448 C164.27,25.201 163.678,24.833 163.173,24.343 C162.667,23.854 162.269,23.246 161.978,22.52 C161.688,21.794 161.543,20.952 161.543,19.995 C161.543,19.037 161.693,18.196 161.994,17.469 C162.296,16.743 162.701,16.133 163.213,15.638 C163.724,15.144 164.315,14.772 164.987,14.525 C165.66,14.277 166.367,14.154 167.11,14.154 C167.873,14.154 168.594,14.277 169.272,14.525 C169.95,14.772 170.541,15.144 171.047,15.638 C171.552,16.133 171.95,16.743 172.24,17.469 C172.531,18.196 172.676,19.037 172.676,19.995 L172.676,19.995 Z M164.14,19.995 C164.14,20.543 164.207,21.038 164.342,21.479 C164.477,21.92 164.67,22.3 164.923,22.617 C165.176,22.934 165.485,23.179 165.851,23.351 C166.216,23.523 166.636,23.609 167.11,23.609 C167.572,23.609 167.989,23.523 168.36,23.351 C168.731,23.179 169.043,22.934 169.296,22.617 C169.549,22.3 169.742,21.92 169.877,21.479 C170.011,21.038 170.078,20.543 170.078,19.995 C170.078,19.446 170.011,18.949 169.877,18.502 C169.742,18.056 169.549,17.674 169.296,17.357 C169.043,17.04 168.731,16.795 168.36,16.622 C167.989,16.45 167.572,16.364 167.11,16.364 C166.636,16.364 166.216,16.453 165.851,16.63 C165.485,16.808 165.176,17.055 164.923,17.373 C164.67,17.69 164.477,18.072 164.342,18.518 C164.207,18.965 164.14,19.457 164.14,19.995 L164.14,19.995 Z" id="Fill-13" fill="#FFFFFF" sketch:type="MSShapeGroup"></path>
            <path d="M182.1,14.412 L182.1,16.558 L178.727,16.558 L178.727,25.594 L176.21,25.594 L176.21,16.558 L172.838,16.558 L172.838,14.412 L182.1,14.412" id="Fill-14" fill="#FFFFFF" sketch:type="MSShapeGroup"></path>
            <path d="M193.395,19.995 C193.395,20.952 193.252,21.794 192.967,22.52 C192.683,23.246 192.292,23.854 191.798,24.343 C191.302,24.833 190.714,25.201 190.03,25.448 C189.347,25.696 188.612,25.819 187.828,25.819 C187.064,25.819 186.343,25.696 185.666,25.448 C184.988,25.201 184.396,24.833 183.891,24.343 C183.385,23.854 182.987,23.246 182.696,22.52 C182.406,21.794 182.261,20.952 182.261,19.995 C182.261,19.037 182.411,18.196 182.713,17.469 C183.014,16.743 183.42,16.133 183.931,15.638 C184.442,15.144 185.033,14.772 185.706,14.525 C186.378,14.277 187.086,14.154 187.828,14.154 C188.591,14.154 189.313,14.277 189.99,14.525 C190.667,14.772 191.259,15.144 191.765,15.638 C192.27,16.133 192.669,16.743 192.959,17.469 C193.25,18.196 193.395,19.037 193.395,19.995 L193.395,19.995 Z M184.859,19.995 C184.859,20.543 184.926,21.038 185.06,21.479 C185.195,21.92 185.389,22.3 185.641,22.617 C185.894,22.934 186.203,23.179 186.569,23.351 C186.935,23.523 187.354,23.609 187.828,23.609 C188.29,23.609 188.708,23.523 189.079,23.351 C189.45,23.179 189.761,22.934 190.015,22.617 C190.267,22.3 190.46,21.92 190.595,21.479 C190.73,21.038 190.797,20.543 190.797,19.995 C190.797,19.446 190.73,18.949 190.595,18.502 C190.46,18.056 190.267,17.674 190.015,17.357 C189.761,17.04 189.45,16.795 189.079,16.622 C188.708,16.45 188.29,16.364 187.828,16.364 C187.354,16.364 186.935,16.453 186.569,16.63 C186.203,16.808 185.894,17.055 185.641,17.373 C185.389,17.69 185.195,18.072 185.06,18.518 C184.926,18.965 184.859,19.457 184.859,19.995 L184.859,19.995 Z" id="Fill-15" fill="#FFFFFF" sketch:type="MSShapeGroup"></path>
            <path d="M199.994,25.819 C198.176,25.819 196.791,25.314 195.839,24.303 C194.887,23.292 194.411,21.856 194.411,19.995 C194.411,19.07 194.556,18.244 194.847,17.518 C195.137,16.792 195.535,16.179 196.041,15.678 C196.546,15.178 197.149,14.799 197.848,14.541 C198.547,14.283 199.306,14.154 200.123,14.154 C200.596,14.154 201.027,14.189 201.414,14.259 C201.801,14.329 202.14,14.409 202.431,14.501 C202.721,14.592 202.963,14.686 203.157,14.783 C203.35,14.88 203.49,14.955 203.577,15.009 L202.85,17.042 C202.506,16.859 202.105,16.703 201.648,16.574 C201.191,16.445 200.672,16.38 200.091,16.38 C199.704,16.38 199.325,16.445 198.954,16.574 C198.583,16.703 198.254,16.91 197.969,17.195 C197.684,17.48 197.455,17.849 197.283,18.301 C197.111,18.753 197.025,19.301 197.025,19.946 C197.025,20.463 197.081,20.944 197.194,21.39 C197.308,21.837 197.49,22.221 197.744,22.544 C197.996,22.867 198.327,23.122 198.736,23.311 C199.145,23.499 199.639,23.593 200.22,23.593 C200.586,23.593 200.914,23.571 201.204,23.529 C201.494,23.486 201.753,23.435 201.979,23.375 C202.205,23.316 202.404,23.249 202.576,23.173 C202.748,23.098 202.904,23.028 203.044,22.964 L203.738,24.981 C203.382,25.196 202.883,25.39 202.237,25.562 C201.592,25.734 200.844,25.819 199.994,25.819" id="Fill-16" fill="#FFFFFF" sketch:type="MSShapeGroup"></path>
            <path d="M215,19.995 C215,20.952 214.858,21.794 214.573,22.52 C214.288,23.246 213.897,23.854 213.403,24.343 C212.908,24.833 212.319,25.201 211.636,25.448 C210.953,25.696 210.218,25.819 209.433,25.819 C208.669,25.819 207.949,25.696 207.271,25.448 C206.593,25.201 206.002,24.833 205.496,24.343 C204.99,23.854 204.593,23.246 204.302,22.52 C204.012,21.794 203.866,20.952 203.866,19.995 C203.866,19.037 204.017,18.196 204.319,17.469 C204.619,16.743 205.025,16.133 205.537,15.638 C206.047,15.144 206.639,14.772 207.312,14.525 C207.983,14.277 208.691,14.154 209.433,14.154 C210.197,14.154 210.918,14.277 211.595,14.525 C212.273,14.772 212.865,15.144 213.37,15.638 C213.876,16.133 214.274,16.743 214.565,17.469 C214.855,18.196 215,19.037 215,19.995 L215,19.995 Z M206.464,19.995 C206.464,20.543 206.531,21.038 206.666,21.479 C206.8,21.92 206.994,22.3 207.247,22.617 C207.5,22.934 207.809,23.179 208.175,23.351 C208.54,23.523 208.96,23.609 209.433,23.609 C209.896,23.609 210.313,23.523 210.684,23.351 C211.055,23.179 211.366,22.934 211.62,22.617 C211.872,22.3 212.066,21.92 212.201,21.479 C212.335,21.038 212.402,20.543 212.402,19.995 C212.402,19.446 212.335,18.949 212.201,18.502 C212.066,18.056 211.872,17.674 211.62,17.357 C211.366,17.04 211.055,16.795 210.684,16.622 C210.313,16.45 209.896,16.364 209.433,16.364 C208.96,16.364 208.54,16.453 208.175,16.63 C207.809,16.808 207.5,17.055 207.247,17.373 C206.994,17.69 206.8,18.072 206.666,18.518 C206.531,18.965 206.464,19.457 206.464,19.995 L206.464,19.995 Z" id="Fill-17" fill="#FFFFFF" sketch:type="MSShapeGroup"></path>
            <path d="M223.971,23.432 L223.971,25.594 L216.5,25.594 L216.5,14.412 L219.017,14.412 L219.017,23.432 L223.971,23.432" id="Fill-18" fill="#FFFFFF" sketch:type="MSShapeGroup"></path>
            <path d="M17.82,0.522 C13.644,3.059 10.015,7.442 7.823,12.949 C3.814,23.021 6.1,33.585 12.823,37.728 C15.096,38.661 17.58,39.184 20.188,39.184 L31.938,39.184 C36.214,36.671 39.939,32.23 42.172,26.62 C46.065,16.836 44.222,6.343 37.921,1.935 L33.796,0.363 L20.188,0.363 C19.385,0.363 18.598,0.427 17.82,0.522" id="Fill-19" fill="#FFFFFF" sketch:type="MSShapeGroup"></path>
            <path d="M37.558,15.948 L41.85,17.598 C41.903,16.488 41.875,15.406 41.768,14.36 L37.388,12.556 C37.537,13.68 37.587,14.814 37.558,15.948" id="Fill-20" fill="#1A1918" sketch:type="MSShapeGroup"></path>
            <path d="M35.814,24.451 C35.792,24.509 35.774,24.57 35.752,24.628 C35.394,25.508 34.966,26.4 34.511,27.258 L38.585,28.851 C39.075,27.966 39.524,27.037 39.924,26.065 L35.814,24.451" id="Fill-21" fill="#1A1918" sketch:type="MSShapeGroup"></path>
            <path d="M36.952,20.73 C36.9,20.951 36.848,21.173 36.793,21.393 C36.591,22.176 36.345,22.945 36.078,23.707 L40.211,25.33 C40.58,24.355 40.891,23.377 41.135,22.403 L36.952,20.73" id="Fill-22" fill="#1A1918" sketch:type="MSShapeGroup"></path>
            <path d="M31.89,31.238 C31.191,32.096 30.437,32.909 29.624,33.661 L33.502,35.208 C34.318,34.5 35.099,33.708 35.837,32.836 L31.89,31.238" id="Fill-23" fill="#1A1918" sketch:type="MSShapeGroup"></path>
            <path d="M27.61,35.316 C27.072,35.695 26.515,36.047 25.942,36.37 L29.539,37.843 C30.664,37.305 31.769,36.624 32.825,35.787 L28.981,34.254 C28.54,34.628 28.084,34.983 27.61,35.316" id="Fill-24" fill="#1A1918" sketch:type="MSShapeGroup"></path>
            <path d="M34.13,27.955 C33.619,28.852 33.071,29.73 32.446,30.554 C32.435,30.568 32.423,30.582 32.411,30.597 L36.374,32.201 C37.022,31.377 37.625,30.484 38.187,29.541 L34.13,27.955" id="Fill-25" fill="#1A1918" sketch:type="MSShapeGroup"></path>
            <path d="M15.909,36.688 L15.904,36.702 L18.676,37.805 C19.552,37.74 20.418,37.59 21.253,37.336 C22.283,37.039 23.275,36.622 24.213,36.111 C25.152,35.599 26.049,35.013 26.884,34.346 C28.55,33.008 30.029,31.438 31.26,29.687 C31.881,28.817 32.449,27.908 32.957,26.965 C33.469,26.015 33.906,25.072 34.311,24.055 C35.108,22.066 35.673,19.986 35.967,17.866 C36.274,15.749 36.281,13.591 35.989,11.474 C35.841,10.415 35.591,9.373 35.262,8.356 C34.931,7.34 34.496,6.356 33.953,5.432 C33.42,4.499 32.753,3.645 31.987,2.88 C31.289,2.189 30.494,1.594 29.628,1.092 C29.625,1.091 29.623,1.089 29.62,1.088 C22.65,-1.686 13.84,4.002 9.944,13.793 C6.047,23.584 8.538,33.77 15.509,36.544 C15.641,36.597 15.776,36.641 15.909,36.688" id="Fill-26" fill="#1A1918" sketch:type="MSShapeGroup"></path>
            <path d="M25.019,36.851 C24.901,36.908 24.784,36.969 24.665,37.023 C23.628,37.488 22.545,37.852 21.433,38.078 C20.918,38.179 20.397,38.245 19.875,38.282 L20.857,38.673 L20.864,38.656 C23.309,39.482 25.955,39.288 28.523,38.286 L25.019,36.851" id="Fill-27" fill="#1A1918" sketch:type="MSShapeGroup"></path>
            <path d="M37.522,16.782 C37.497,17.206 37.465,17.63 37.42,18.051 C37.352,18.689 37.247,19.321 37.12,19.948 L41.311,21.625 C41.547,20.547 41.715,19.478 41.803,18.428 L37.522,16.782" id="Fill-28" fill="#1A1918" sketch:type="MSShapeGroup"></path>
            <path d="M37.246,11.65 L41.668,13.471 C41.468,12.114 41.123,10.837 40.657,9.655 L36.161,7.893 C36.177,7.931 36.195,7.967 36.211,8.005 C36.645,9.056 36.952,10.156 37.178,11.269 C37.203,11.396 37.223,11.523 37.246,11.65" id="Fill-29" fill="#1A1918" sketch:type="MSShapeGroup"></path>
            <path d="M30.589,1.474 C31.179,1.782 31.747,2.142 32.271,2.56 C33.154,3.257 33.93,4.096 34.588,5.019 C34.998,5.6 35.356,6.216 35.677,6.851 L40.203,8.626 C39.025,6.201 37.262,4.293 34.962,3.234 L34.968,3.217 L30.589,1.474" id="Fill-30" fill="#1A1918" sketch:type="MSShapeGroup"></path>
            <path d="M23.372,22.37 L21.371,21.574 L22.373,19.057 L24.374,19.853 C24.926,20.073 25.15,20.817 24.874,21.51 C24.597,22.207 23.925,22.59 23.372,22.37 L23.372,22.37 Z M23.875,15.282 L25.375,15.879 C25.928,16.098 26.151,16.842 25.875,17.535 C25.598,18.232 24.926,18.615 24.373,18.395 L22.874,17.798 L23.875,15.282 L23.875,15.282 Z M26.743,19.766 C27.216,19.449 27.629,18.959 27.878,18.333 C28.662,16.365 28.192,14.813 26.63,14.191 L27.569,11.832 C27.604,11.745 27.576,11.652 27.505,11.624 L26.755,11.326 C26.689,11.299 26.606,11.345 26.571,11.427 L25.629,13.793 L24.629,13.395 L25.568,11.035 C25.602,10.949 25.575,10.856 25.504,10.828 L24.754,10.529 C24.687,10.503 24.605,10.548 24.57,10.631 L23.628,12.997 L21.5,12.15 C21.432,12.122 21.348,12.171 21.313,12.258 L20.938,13.202 C20.907,13.286 20.933,13.382 21.002,13.409 L21.128,13.459 C21.681,13.679 21.904,14.423 21.628,15.116 L19.623,20.153 C19.361,20.811 18.745,21.191 18.212,21.045 C18.156,21.031 18.093,21.061 18.054,21.12 L17.482,21.989 C17.454,22.034 17.443,22.086 17.45,22.133 C17.457,22.18 17.486,22.218 17.526,22.234 L19.618,23.066 L18.676,25.432 C18.645,25.517 18.674,25.606 18.74,25.633 L19.49,25.931 C19.559,25.958 19.645,25.911 19.679,25.824 L20.619,23.465 L21.619,23.863 L20.678,26.229 C20.647,26.313 20.675,26.403 20.742,26.429 L21.492,26.728 C21.56,26.755 21.646,26.707 21.681,26.621 L22.62,24.261 L23.119,24.46 C24.683,25.082 26.092,24.274 26.874,22.31 C27.242,21.385 27.158,20.433 26.743,19.766 L26.743,19.766 Z" id="Fill-31" fill="#FFFFFF" sketch:type="MSShapeGroup"></path>
            <path d="M24.179,25.7 C24.551,25.796 24.92,25.928 25.287,25.978 C25.65,26.031 26.022,26.01 26.363,25.919 C26.708,25.832 27.024,25.666 27.298,25.446 C27.575,25.23 27.812,24.963 28.018,24.672 C28.222,24.379 28.393,24.059 28.544,23.73 C28.608,23.56 28.688,23.392 28.74,23.223 C28.796,23.049 28.837,22.9 28.869,22.723 C28.998,22.047 28.894,21.333 28.562,20.772 L28.377,20.458 L28.672,20.263 C29.145,19.952 29.524,19.493 29.784,18.974 C29.849,18.848 29.897,18.717 29.959,18.558 C30.024,18.405 30.06,18.269 30.108,18.127 C30.199,17.842 30.269,17.544 30.305,17.248 C30.344,16.949 30.339,16.652 30.313,16.355 C30.273,16.06 30.184,15.776 30.062,15.501 C29.992,15.37 29.922,15.234 29.827,15.114 C29.743,14.986 29.631,14.879 29.523,14.767 C29.409,14.662 29.289,14.561 29.157,14.473 C29.034,14.372 28.889,14.303 28.752,14.217 C29.059,14.311 29.368,14.429 29.64,14.622 C29.772,14.72 29.912,14.817 30.026,14.941 C30.151,15.056 30.254,15.191 30.357,15.328 C30.744,15.898 30.898,16.611 30.865,17.29 C30.852,17.632 30.804,17.966 30.727,18.299 C30.682,18.464 30.64,18.64 30.587,18.785 C30.539,18.927 30.485,19.1 30.412,19.263 C30.14,19.908 29.68,20.48 29.089,20.885 L29.198,20.376 C29.674,21.13 29.755,22.043 29.59,22.863 C29.551,23.063 29.488,23.284 29.414,23.47 C29.343,23.664 29.249,23.839 29.167,24.024 C28.978,24.38 28.778,24.734 28.514,25.049 C28.251,25.363 27.948,25.651 27.599,25.878 C27.424,25.991 27.234,26.079 27.041,26.157 C26.843,26.225 26.643,26.279 26.438,26.307 C26.233,26.333 26.027,26.334 25.825,26.311 C25.623,26.289 25.427,26.254 25.235,26.188 C24.851,26.074 24.52,25.88 24.179,25.7" id="Fill-32" fill="#FFFFFF" sketch:type="MSShapeGroup"></path>
            <path d="M16.583,16.136 C19.202,9.556 24.499,5.432 28.649,6.609 C28.472,6.519 28.292,6.434 28.105,6.36 C23.315,4.454 17.222,8.459 14.497,15.306 C11.772,22.154 13.446,29.25 18.237,31.156 C18.424,31.231 18.613,31.293 18.803,31.349 C14.979,29.353 13.964,22.717 16.583,16.136" id="Fill-33" fill="#FFFFFF" sketch:type="MSShapeGroup"></path>
            <path id="Stroke-34" stroke="#D9222A" sketch:type="MSShapeGroup"></path>
        </g>
    </g>
</svg>